<svg width="20" height="17" viewBox="0 0 20 17" fill="none" xmlns="http://www.w3.org/2000/svg">
<path d="M16.6692 4.35942e-09C17.385 -3.98687e-05 18.0738 0.273443 18.5945 0.764494C19.1153 1.25554 19.4288 1.92704 19.4708 2.64159L19.4755 2.80622V14.0311C19.4755 14.7469 19.202 15.4357 18.711 15.9564C18.2199 16.4772 17.5484 16.7907 16.8339 16.8327L16.6692 16.8373H6.48076C6.03542 16.8372 5.59649 16.7311 5.20026 16.5278C4.80404 16.3245 4.46189 16.0298 4.20211 15.6681L4.10108 15.5184L0.284618 9.41021C0.113506 9.13658 0.0160875 8.82335 0.00182752 8.50094C-0.0124325 8.17854 0.0569516 7.85792 0.203237 7.57026L0.283682 7.42714L4.10108 1.31893C4.33711 0.941203 4.65967 0.625088 5.04207 0.396719C5.42448 0.16835 5.85575 0.0342865 6.30023 0.00561249L6.48076 4.35942e-09H16.6692ZM16.6692 1.87082H6.48076C6.34242 1.87086 6.20581 1.90159 6.08078 1.96079C5.95575 2.02 5.8454 2.10619 5.75769 2.21318L5.68754 2.31046L1.87107 8.41867L5.68754 14.5269C5.76084 14.6443 5.85927 14.7439 5.97574 14.8186C6.0922 14.8934 6.22379 14.9413 6.36103 14.9591L6.48076 14.9665H16.6692C16.8983 14.9665 17.1195 14.8824 17.2907 14.7301C17.4619 14.5779 17.5713 14.3681 17.5981 14.1406L17.6046 14.0311V2.80622C17.6046 2.57711 17.5205 2.35598 17.3682 2.18477C17.216 2.01355 17.0062 1.90417 16.7787 1.87736L16.6692 1.87082ZM9.07278 5.11107L11.0558 7.09601L13.0408 5.11107C13.1277 5.02422 13.2309 4.95534 13.3444 4.90837C13.4579 4.86139 13.5796 4.83723 13.7024 4.83727C13.8253 4.83732 13.947 4.86156 14.0605 4.90862C14.174 4.95568 14.2771 5.02463 14.3639 5.11154C14.4508 5.19845 14.5196 5.30161 14.5666 5.41514C14.6136 5.52867 14.6378 5.65034 14.6377 5.7732C14.6377 5.89607 14.6134 6.01772 14.5664 6.13122C14.5193 6.24471 14.4504 6.34783 14.3634 6.43467L12.3804 8.41867L14.3634 10.4027C14.539 10.5781 14.6376 10.816 14.6377 11.0641C14.6378 11.3123 14.5393 11.5503 14.3639 11.7258C14.1885 11.9013 13.9506 12 13.7024 12.0001C13.4543 12.0002 13.2163 11.9017 13.0408 11.7263L11.0568 9.74134L9.07278 11.7263C8.89726 11.9018 8.6592 12.0004 8.41098 12.0004C8.16275 12.0004 7.9247 11.9018 7.74918 11.7263C7.57366 11.5508 7.47505 11.3127 7.47505 11.0645C7.47505 10.8163 7.57366 10.5782 7.74918 10.4027L9.73411 8.41867L7.74918 6.43467C7.57366 6.25915 7.47505 6.0211 7.47505 5.77287C7.47505 5.52465 7.57366 5.28659 7.74918 5.11107C7.9247 4.93555 8.16275 4.83694 8.41098 4.83694C8.6592 4.83694 8.89726 4.93555 9.07278 5.11107Z" fill="white"/>
</svg>
