<svg width="26" height="26" viewBox="0 0 26 26" fill="none" xmlns="http://www.w3.org/2000/svg">
<rect width="26" height="26" rx="6" fill="#2A1C0F"/>
<g clip-path="url(#clip0_63_177)">
<path d="M18.0417 7.95825H18.0509M8.41671 3.83325H17.5834C20.1147 3.83325 22.1667 5.88528 22.1667 8.41659V17.5833C22.1667 20.1146 20.1147 22.1666 17.5834 22.1666H8.41671C5.8854 22.1666 3.83337 20.1146 3.83337 17.5833V8.41659C3.83337 5.88528 5.8854 3.83325 8.41671 3.83325ZM16.6667 12.4224C16.7798 13.1853 16.6495 13.9645 16.2943 14.649C15.9391 15.3336 15.3771 15.8887 14.6882 16.2355C13.9993 16.5822 13.2186 16.7029 12.4572 16.5804C11.6957 16.4578 10.9923 16.0983 10.447 15.553C9.90163 15.0076 9.54213 14.3042 9.4196 13.5428C9.29708 12.7813 9.41777 12.0007 9.76451 11.3118C10.1112 10.6229 10.6664 10.0608 11.3509 9.70564C12.0355 9.35043 12.8146 9.22012 13.5775 9.33325C14.3557 9.44865 15.0762 9.81126 15.6324 10.3675C16.1887 10.9238 16.5513 11.6442 16.6667 12.4224Z" stroke="#F3F3F3" stroke-width="2" stroke-linecap="round" stroke-linejoin="round"/>
</g>
<defs>
<clipPath id="clip0_63_177">
<rect width="22" height="22" fill="white" transform="translate(2 2)"/>
</clipPath>
</defs>
</svg>
