<svg width="119" height="120" viewBox="0 0 119 120" fill="none" xmlns="http://www.w3.org/2000/svg">
<path d="M69.4163 65C65.2844 65 61.7722 63.5417 58.8799 60.625C55.9875 57.7083 54.5413 54.1667 54.5413 50C54.5413 45.8333 55.9875 42.2917 58.8799 39.375C61.7722 36.4583 65.2844 35 69.4163 35C73.5483 35 77.0604 36.4583 79.9528 39.375C82.8452 42.2917 84.2913 45.8333 84.2913 50C84.2913 54.1667 82.8452 57.7083 79.9528 60.625C77.0604 63.5417 73.5483 65 69.4163 65ZM24.7913 80V20H114.041V80H24.7913ZM44.6247 70H94.208C94.208 67.25 95.1798 64.8967 97.1235 62.94C99.0672 60.9833 101.401 60.0033 104.125 60V40C101.398 40 99.0639 39.0217 97.1235 37.065C95.1831 35.1083 94.2113 32.7533 94.208 30H44.6247C44.6247 32.75 43.6545 35.105 41.7141 37.065C39.7738 39.025 37.4384 40.0033 34.708 40V60C37.4351 60 39.7705 60.98 41.7141 62.94C43.6578 64.9 44.628 67.2533 44.6247 70ZM4.95801 100V35H14.8747V90H99.1663V100H4.95801Z" fill="black" fill-opacity="0.55"/>
</svg>
