<svg width="238" height="68" viewBox="0 0 238 68" fill="none" xmlns="http://www.w3.org/2000/svg">
<path d="M3.024 43.288C2.592 43.24 2.208 43.192 1.872 43C1.824 43 1.728 42.952 1.68 42.856V42.904C0.96 42.568 0.768 41.176 1.2 40.696C1.488 40.36 1.728 40.312 2.016 40.264C2.208 40.216 2.544 40.216 2.688 40.12C2.736 38.776 2.784 37.432 3.072 31.864C3.12 30.328 3.216 28.648 3.36 27.16C3.696 24.808 3.744 22.504 3.792 20.152V18.856C3.792 16.888 3.792 14.92 3.744 12.856C3.744 12.808 3.552 12.664 3.456 12.616C3.216 12.616 2.88 12.568 2.736 12.472H2.544C2.256 12.28 1.44 11.512 1.488 10.984C1.68 10.552 2.208 9.976 2.448 9.88C3.072 9.736 3.792 9.64 4.656 9.64C5.232 9.64 5.904 9.688 6.432 9.88C7.248 10.072 8.208 10.792 8.496 11.656C8.928 12.52 9.888 13.768 9.984 14.776C10.032 15.016 10.128 15.448 10.128 15.4V15.352L10.32 15.88L11.28 18.712C11.472 19.384 11.712 20.056 11.952 20.728L12.672 22.744C13.536 25.48 14.4 28.6 15.168 31.48C15.504 29.992 15.84 28.504 16.272 27.16C16.32 26.872 16.464 26.584 16.512 26.296C17.088 23.512 18.288 20.68 19.44 17.992C19.728 17.224 20.016 16.312 20.304 15.352L20.448 14.872C21.072 13.192 21.936 11.896 22.8 10.504C23.136 10.12 23.808 9.832 24.288 9.688L25.776 9.448L27.696 9.16C28.368 9.208 29.568 9.928 29.664 10.696C29.76 11.464 29.232 12.184 28.32 12.376C28.176 12.472 27.504 12.472 27.36 12.472C27.408 13 27.408 13.48 27.408 14.008C27.408 14.248 27.36 14.488 27.36 14.728V15.448C27.312 15.784 27.312 16.792 27.312 17.128C27.6 18.328 27.648 19.624 27.504 20.92C27.408 21.112 27.408 21.208 27.456 21.304C27.456 21.352 27.504 21.448 27.504 21.496C27.552 21.64 27.6 21.832 27.6 21.976V22.456C27.6 22.792 27.552 23.464 27.552 23.464C27.168 24.616 27.072 29.752 26.88 32.68C26.88 32.872 26.928 33.016 26.928 33.256C27.072 34.024 27.072 34.792 26.928 35.56V35.512C26.832 36.76 26.832 38.056 26.832 39.352C26.832 39.496 26.832 39.592 26.88 39.64V39.544C26.976 39.592 27.12 39.64 27.264 39.64L27.888 39.784C28.656 40.072 29.232 41.416 28.944 41.848L28.608 42.184C28.368 42.424 28.176 42.52 27.84 42.568C26.928 42.808 25.776 43 24.864 43C23.808 42.952 22.416 42.712 21.552 42.52C20.976 42.376 20.4 41.8 20.4 41.464C20.4 41.32 20.448 40.984 20.592 40.744H20.544C21.024 40.264 21.408 39.976 21.696 39.784V39.832C21.84 39.64 21.888 39.544 21.888 39.304V35.08C21.84 34.504 21.84 33.448 21.84 32.92C21.84 29.032 22.32 24.52 22.416 20.584V19.624L22.272 19.96C22.032 20.44 21.888 21.112 21.744 21.784V21.832C21.696 21.928 21.696 22.024 21.696 22.072C21.696 22.12 21.648 22.216 21.648 22.264C21.216 22.744 19.152 33.832 17.184 38.392C17.136 39.352 16.848 40.216 16.224 40.984C15.84 41.464 13.968 41.656 13.344 41.32C13.152 41.224 12.96 41.08 12.672 40.504L7.296 22.504L7.104 25.72L6.816 29.8V30.76C6.864 32.392 6.336 36.376 6.096 38.584L6.144 40.072V39.976C6.288 39.976 6.768 40.072 6.912 40.072C7.296 40.168 7.776 40.216 8.208 40.264C8.496 40.456 8.832 40.648 9.024 40.888C9.024 40.888 9.072 40.984 9.12 40.984C9.168 41.08 9.216 41.176 9.264 41.176C9.504 42.088 8.88 42.904 8.352 43.096C7.488 43.336 6.288 43.336 5.568 43.288H3.024ZM51.7046 43.432C51.1286 43.432 50.4566 43.384 49.8806 43.096C48.8246 43 47.0006 42.856 47.0006 41.656C47.0006 41.416 47.3366 40.888 47.7686 40.6C47.6726 40.408 47.6726 40.216 47.5766 40.024L47.3366 39.496C46.4246 37.528 45.7526 35.272 45.1766 33.208L45.0806 32.92V32.968L44.7926 31.432L44.5526 31.192L43.9286 31C43.4486 30.856 43.0646 30.76 42.6326 30.712C42.2966 30.712 41.9126 30.76 41.4806 30.76C40.6166 30.76 39.7046 30.712 39.0806 30.568C39.0326 30.616 38.9846 30.808 38.9846 30.904C38.9846 32.248 37.5926 35.752 37.0646 38.776L36.7286 40.072H36.8726C36.9686 40.072 37.1126 40.024 37.2566 40.024H38.4566C38.7926 40.072 38.9846 40.12 39.2246 40.312V40.264C40.0406 40.456 40.1846 41.128 40.1846 41.464C40.1846 42.424 39.0326 42.712 37.8806 42.712H37.6886C36.2486 42.808 35.6726 43.48 34.5206 43.48C33.5606 43.48 33.3686 43.192 32.1206 42.808L30.6806 42.376C30.3926 42.088 30.2006 41.8 30.2006 41.32C30.2006 41.128 30.4406 40.696 30.7286 40.408L31.1126 40.264C31.3046 40.168 31.6406 40.072 31.8806 40.024H32.2646C32.4086 40.024 32.5526 39.976 32.7926 39.976V40.024C33.2246 38.632 33.7526 36.136 34.2326 34.456C34.4726 33.064 35.7686 27.88 36.5846 23.656L36.9206 22.168C37.1606 20.968 37.4966 19.768 37.8806 18.568L38.9366 15.592C38.9366 15.304 39.2726 15.064 39.2726 14.776L39.5126 14.296C40.4726 12.424 40.0406 10.84 42.6326 10.84C44.5526 11.416 44.5526 11.944 45.5126 13.816L46.1366 15.736C47.2886 19.288 48.8726 23.848 49.8326 27.64C50.6006 30.568 51.4166 33.736 52.3766 36.376L52.6646 37.048C53.0966 38.104 53.3846 39.304 53.5286 40.36L54.8246 40.504C55.6406 40.6 55.8326 41.224 56.0726 41.848C56.0726 41.848 55.7846 42.568 55.4486 42.856L53.9606 43.048C53.4326 43.048 52.4246 43.432 51.7046 43.432ZM43.2086 27.688H43.4486C43.5446 27.688 43.6406 27.64 43.8326 27.592C43.6406 26.488 43.0166 25.672 43.0166 24.472C43.0166 24.232 43.0646 23.944 43.1126 23.656C43.1126 23.608 43.0646 23.56 43.0646 23.512C42.1046 21.496 41.8166 20.872 41.7206 19.288C41.4806 20.488 41.0486 21.64 40.9046 22.552L40.4246 24.28C39.7526 25.864 39.8486 26.584 39.8486 27.64C40.0886 27.64 40.5206 27.544 43.2086 27.688ZM66.501 8.728C66.981 8.728 67.845 8.968 68.661 9.16L72.357 10.408C74.757 11.368 75.573 14.248 75.573 17.656C75.573 18.376 75.477 19.048 75.285 19.672C75.045 20.104 74.757 21.496 74.229 22.264L74.085 22.504C73.653 22.888 73.269 23.368 72.933 23.704L72.549 24.136V24.184C72.549 24.232 72.645 24.328 72.837 24.424L73.701 24.76L73.893 24.808C75.477 25.672 76.245 26.728 76.533 28.216L76.773 29.56V29.512C77.109 30.616 77.253 31.912 77.253 33.016C77.253 34.12 77.157 35.08 76.965 35.992V35.944C76.485 39.64 72.933 42.904 68.997 42.904C68.229 42.904 67.317 42.568 66.741 42.568C65.157 42.568 63.285 42.904 61.653 42.904C61.077 42.904 60.213 42.904 59.637 42.856H58.821C57.285 42.856 56.805 42.376 56.565 41.608C56.565 41.368 56.853 40.456 57.333 40.264L58.245 40.072V39.88C58.197 39.448 58.149 38.632 58.149 37.768V36.472C58.149 33.064 57.717 29.752 57.717 26.488C57.717 24.424 58.005 22.168 58.437 13.576L58.533 12.088C57.669 12.088 57.093 11.656 56.805 10.696L57.381 9.88C58.101 9.544 59.445 9.4 60.741 9.4C62.565 9.4 64.005 8.872 65.637 8.728H66.501ZM64.245 32.776V34.984C64.293 35.464 64.293 36.28 64.293 36.664C64.293 37.672 64.245 38.68 64.005 39.784C64.581 39.736 65.973 39.736 66.501 39.736C67.317 39.736 68.325 39.832 69.093 39.832C69.957 39.832 70.197 39.544 70.581 38.728L70.869 38.296L71.157 37.576C71.157 37.528 71.253 37.336 71.253 37.24C71.541 35.272 71.685 33.544 71.685 31.816V31.192C71.685 29.032 70.581 26.632 69.093 26.632C69.045 26.632 68.997 26.632 68.949 26.632H67.797C67.125 26.92 65.973 27.064 65.301 27.16L64.533 27.304L64.341 27.592C64.245 28.6 64.197 29.896 64.197 30.856C64.197 31.576 64.197 32.2 64.245 32.776ZM64.389 14.008L64.245 22.504C64.245 22.936 64.245 23.368 64.245 23.752C64.245 23.944 64.245 24.136 64.245 24.328L64.437 24.184C65.205 23.896 66.693 23.944 68.085 23.416L68.613 23.224C69.621 22.456 70.149 20.44 70.149 18.856C70.149 17.272 69.765 15.784 69.429 14.296L69.333 13.864C68.997 12.856 68.277 11.608 65.061 11.608C64.917 11.608 64.773 11.656 64.677 11.656V11.608C64.581 11.704 64.485 11.944 64.485 12.136L64.389 14.008ZM86.2759 42.952C86.0839 42.952 86.0359 42.856 85.9399 42.856C85.7959 42.856 85.6519 42.904 85.5079 42.904H85.1239C84.2599 42.952 82.9159 42.952 82.1959 42.952C81.1399 42.952 80.6119 42.52 80.6119 41.848C80.6119 41.224 80.8999 40.36 81.9559 40.216L82.7239 40.12V40.216C82.7239 40.168 82.7719 40.072 82.7719 39.976V39.496C82.7719 38.776 82.8199 38.056 82.8199 37.336V31.096C82.8199 28.936 83.2039 26.344 83.2039 23.848V23.224C83.3479 19.864 83.5399 16.408 84.1639 13L84.1159 12.664V12.808C84.0679 12.808 83.9719 12.76 83.9239 12.76L83.1079 12.52C81.8599 12.184 81.2359 11.416 81.2359 10.648C81.2359 9.256 83.4919 9.4 84.8839 9.4C86.9479 9.4 90.9799 9.64 90.9799 11.416V11.464L90.7879 11.176C90.7879 11.704 90.3559 12.424 89.9719 12.568L88.8679 12.952C88.6759 13.048 88.5319 13.24 88.4359 13.528V13.48C88.1959 14.92 88.0999 15.544 88.0999 16.216C88.0999 16.84 88.1479 17.56 88.2439 18.76V19C88.2439 19.336 88.3399 19.576 88.3399 20.008C88.3399 21.256 88.0039 23.416 88.0039 24.52V25.048C87.8599 27.208 87.6679 29.56 87.6679 31.336V31.672C87.5719 33.256 87.3799 34.984 87.3799 36.328C87.3799 37.48 87.4759 38.68 87.5719 39.88V39.736C87.8119 39.784 88.0999 39.928 88.3399 39.976C88.7719 40.12 90.5959 39.976 90.5959 41.896L90.6439 41.752C90.6439 43.144 88.7239 43.048 87.4279 43.048L86.2759 42.952ZM111.254 22.84C111.158 21.832 111.11 20.776 111.11 19.72C111.11 17.8 111.254 15.88 111.59 14.008V13.288C110.582 13.096 109.43 12.904 109.43 11.656C109.43 11.512 109.526 11.32 109.622 11.128V11.176L109.862 10.792C110.102 10.552 110.774 10.312 111.11 10.312H116.006C116.63 10.312 117.158 10.744 117.686 11.272L117.446 11.224C117.59 11.464 117.638 11.752 117.638 12.04C117.638 13.72 116.15 13.096 115.286 13.384C115.19 13.384 115.046 13.336 115.046 13.336C115.046 13.384 115.094 13.432 115.094 13.528C114.998 14.584 114.95 15.64 114.95 16.6V17.848C114.95 18.232 114.902 18.616 114.902 19V20.056C114.902 21.88 115.19 23.896 115.19 25.432C115.19 26.44 114.95 27.544 114.95 28.6C114.854 31 114.326 33.688 114.326 36.088V37.096C114.326 38.152 114.182 39.448 114.134 40.504C113.99 41.944 112.742 42.184 111.062 42.184C110.294 42.184 109.526 42.088 109.238 41.656V41.704C108.854 41.464 108.662 41.176 108.518 40.84C107.222 39.448 102.902 29.608 101.03 25.624L100.646 24.616C100.55 24.28 100.406 23.944 100.262 23.608L99.2535 21.016C99.2055 20.968 99.1095 20.872 99.1095 20.824V21.88C99.1095 22.648 98.8695 23.32 98.8695 24.856C98.8695 25.288 98.8695 25.72 98.9175 26.2V27.976C98.9175 30.184 98.6295 32.392 98.6295 34.456C98.6295 35.368 98.8215 36.28 98.8215 37.912C98.8215 38.536 98.7255 38.92 98.7255 39.4V39.928C98.7255 40.216 98.7735 40.504 98.8695 40.984V40.888L101.078 41.032C101.75 41.176 102.134 41.992 102.134 42.616C102.134 43.912 98.9175 43.768 96.8055 43.816H96.4215C95.8935 43.816 95.3175 43.72 94.7415 43.624L94.5015 43.432C94.4055 43.288 93.8775 42.568 93.8775 42.568C93.8775 40.984 95.2695 40.84 95.2215 40.84V40.744C95.2215 40.552 95.1735 40.312 95.1735 40.12V38.44C95.0775 37.384 95.0295 36.04 95.0295 35.032C95.0295 33.496 95.1255 31.576 95.2695 29.944V25.816C95.2695 25.528 95.2695 25.24 95.2695 24.952C95.2695 24.664 95.2695 24.376 95.3175 24.136V24.184C95.5095 22.216 95.5575 20.056 95.5575 18.04V12.952C95.5575 12.424 95.6055 12.184 95.1255 12.04L94.5495 11.752C94.0695 11.272 94.0695 11.08 94.0695 10.792C94.0695 10.36 94.8375 9.688 95.6055 9.688C96.9495 9.688 99.9255 9.688 100.31 11.416C100.502 12.28 101.03 12.808 101.414 13.528L101.558 13.912V13.864L102.278 15.592C102.95 17.464 104.246 19.24 108.182 28.264L108.95 30.28C109.382 31.432 110.006 32.728 110.582 33.928C110.582 33.784 110.63 33.688 110.63 33.544L110.966 30.52C111.254 29.08 111.254 27.736 111.254 26.392V22.84ZM126.213 42.952C126.021 42.952 125.973 42.856 125.877 42.856C125.733 42.856 125.589 42.904 125.445 42.904H125.061C124.197 42.952 122.853 42.952 122.133 42.952C121.077 42.952 120.549 42.52 120.549 41.848C120.549 41.224 120.837 40.36 121.893 40.216L122.661 40.12V40.216C122.661 40.168 122.709 40.072 122.709 39.976V39.496C122.709 38.776 122.757 38.056 122.757 37.336V31.096C122.757 28.936 123.141 26.344 123.141 23.848V23.224C123.285 19.864 123.477 16.408 124.101 13L124.053 12.664V12.808C124.005 12.808 123.909 12.76 123.861 12.76L123.045 12.52C121.797 12.184 121.173 11.416 121.173 10.648C121.173 9.256 123.429 9.4 124.821 9.4C126.885 9.4 130.917 9.64 130.917 11.416V11.464L130.725 11.176C130.725 11.704 130.293 12.424 129.909 12.568L128.805 12.952C128.613 13.048 128.469 13.24 128.373 13.528V13.48C128.133 14.92 128.037 15.544 128.037 16.216C128.037 16.84 128.085 17.56 128.181 18.76V19C128.181 19.336 128.277 19.576 128.277 20.008C128.277 21.256 127.941 23.416 127.941 24.52V25.048C127.797 27.208 127.605 29.56 127.605 31.336V31.672C127.509 33.256 127.317 34.984 127.317 36.328C127.317 37.48 127.413 38.68 127.509 39.88V39.736C127.749 39.784 128.037 39.928 128.277 39.976C128.709 40.12 130.533 39.976 130.533 41.896L130.581 41.752C130.581 43.144 128.661 43.048 127.365 43.048L126.213 42.952ZM141.023 23.992C141.503 19.672 143.087 15.304 147.023 12.232L147.743 11.704C149.567 10.36 151.439 9.592 153.263 9.592C154.174 9.592 155.135 9.784 156.143 10.072L156.383 10.264V10.216L156.719 10.36C156.911 10.456 157.247 10.552 157.487 10.744V10.696C157.487 10.696 158.063 10.456 158.495 10.456C159.167 10.456 159.935 10.936 160.079 11.704L160.367 13.144C160.607 14.344 160.847 15.496 160.847 16.696C160.847 17.896 160.031 19.096 158.543 19.096C157.727 19.096 156.767 18.568 156.719 17.704L156.479 16.12C156.431 15.112 156.287 13.336 155.951 13.096V13.144C155.135 12.808 153.935 12.52 153.119 12.52C153.023 12.52 152.927 12.568 152.831 12.568C149.903 13.432 146.447 15.928 146.447 18.52C146.447 20.056 146.015 21.352 146.015 22.552C146.015 22.84 146.062 23.08 146.062 23.32C146.062 24.136 145.679 25.048 145.679 25.864C145.679 26.104 145.727 26.296 145.871 28.84C145.871 30.376 146.255 31.96 146.687 33.496L146.975 34.6C147.551 37.624 150.479 40.216 153.359 40.216C153.983 40.216 155.087 40.072 155.951 39.112L156.095 38.872V38.92L156.239 38.632C156.863 37.384 157.487 36.568 158.255 36.568C158.735 36.568 159.839 37.576 159.839 38.2C159.839 38.536 159.647 38.92 159.311 39.304V39.256C159.263 39.304 159.215 39.448 159.215 39.496L158.735 40.168C157.103 42.424 154.271 42.952 152.062 42.952C150.047 42.952 148.271 42.424 146.398 41.368L144.191 39.784C142.559 37 141.023 36.616 141.023 23.992ZM181.877 43.432C181.301 43.432 180.629 43.384 180.053 43.096C178.997 43 177.173 42.856 177.173 41.656C177.173 41.416 177.509 40.888 177.941 40.6C177.845 40.408 177.845 40.216 177.749 40.024L177.509 39.496C176.597 37.528 175.924 35.272 175.349 33.208L175.253 32.92V32.968L174.965 31.432L174.725 31.192L174.101 31C173.621 30.856 173.237 30.76 172.805 30.712C172.469 30.712 172.085 30.76 171.653 30.76C170.789 30.76 169.877 30.712 169.253 30.568C169.205 30.616 169.157 30.808 169.157 30.904C169.157 32.248 167.765 35.752 167.237 38.776L166.901 40.072H167.045C167.141 40.072 167.285 40.024 167.429 40.024H168.629C168.965 40.072 169.157 40.12 169.397 40.312V40.264C170.213 40.456 170.357 41.128 170.357 41.464C170.357 42.424 169.205 42.712 168.053 42.712H167.861C166.421 42.808 165.845 43.48 164.693 43.48C163.733 43.48 163.541 43.192 162.293 42.808L160.852 42.376C160.564 42.088 160.372 41.8 160.372 41.32C160.372 41.128 160.612 40.696 160.9 40.408L161.284 40.264C161.476 40.168 161.812 40.072 162.053 40.024H162.437C162.581 40.024 162.725 39.976 162.965 39.976V40.024C163.396 38.632 163.925 36.136 164.405 34.456C164.645 33.064 165.941 27.88 166.757 23.656L167.093 22.168C167.333 20.968 167.669 19.768 168.053 18.568L169.109 15.592C169.109 15.304 169.445 15.064 169.445 14.776L169.685 14.296C170.645 12.424 170.213 10.84 172.805 10.84C174.725 11.416 174.725 11.944 175.685 13.816L176.309 15.736C177.461 19.288 179.045 23.848 180.005 27.64C180.773 30.568 181.589 33.736 182.549 36.376L182.837 37.048C183.269 38.104 183.557 39.304 183.701 40.36L184.997 40.504C185.812 40.6 186.005 41.224 186.245 41.848C186.245 41.848 185.957 42.568 185.621 42.856L184.133 43.048C183.605 43.048 182.597 43.432 181.877 43.432ZM173.381 27.688H173.621C173.717 27.688 173.812 27.64 174.005 27.592C173.812 26.488 173.189 25.672 173.189 24.472C173.189 24.232 173.237 23.944 173.285 23.656C173.285 23.608 173.237 23.56 173.237 23.512C172.277 21.496 171.989 20.872 171.893 19.288C171.653 20.488 171.221 21.64 171.077 22.552L170.597 24.28C169.925 25.864 170.021 26.584 170.021 27.64C170.261 27.64 170.693 27.544 173.381 27.688ZM193.457 34.936L193.553 34.792V40.456H194.849C194.945 40.648 195.425 41.272 195.425 41.272C195.425 41.848 195.281 42.76 193.649 42.76C193.409 42.76 193.169 42.76 192.881 42.76C192.161 42.76 191.441 43.096 190.817 43.096C190.385 43.096 190.049 43 189.713 43C189.377 43 189.041 43.096 188.753 43.096C188.609 43.096 188.465 43.048 188.369 43L187.265 42.616C186.977 42.328 186.833 41.896 186.833 41.56C186.833 40.936 187.745 40.696 188.129 40.6V40.456C188.177 40.456 188.225 40.456 188.225 40.456C188.273 40.456 188.321 40.456 188.321 40.456V39.976C188.177 37.48 187.889 34.888 187.889 32.248C187.889 30.424 188.033 28.696 188.033 26.872V26.296C188.033 25.144 188.369 23.848 188.369 22.84C188.513 20.536 188.657 18.136 188.897 15.832V15.592C188.897 15.496 188.945 15.4 188.945 15.256C188.945 14.968 188.753 14.92 188.321 14.872L187.937 14.584V14.632C187.313 14.632 186.737 13.96 186.737 13.432C186.737 13.384 186.737 13.288 186.785 13.24L187.313 12.136C188.033 12.136 188.177 12.088 188.321 12.04L189.089 11.944H191.777C193.889 11.944 196.433 11.368 198.785 11.368H199.265C199.505 11.32 199.937 11.32 200.225 11.32H200.513C200.849 11.32 201.185 11.08 202.097 11.08C203.729 11.08 205.217 12.136 205.217 15.784C205.217 17.128 204.833 18.088 203.153 18.088C202.529 18.088 201.857 17.896 201.569 17.032L201.377 16.456C201.089 15.64 200.753 14.872 200.753 14.104V14.152C200.513 14.152 200.273 14.104 200.033 14.104H199.409C197.729 14.104 196.097 14.008 194.225 14.872V14.824L193.793 15.064V14.968C193.649 15.112 193.649 15.304 193.649 15.544V16.6C193.649 16.936 193.697 17.32 193.697 17.704C193.697 20.008 193.313 22.312 193.313 24.376L194.993 24.52V23.848C195.041 23.512 195.137 23.176 195.233 22.84C195.233 22.456 194.945 20.92 197.009 20.92C198.257 20.92 198.737 22.6 198.737 23.848C198.737 24.664 198.497 25.528 198.497 26.104C198.497 27.16 198.689 27.976 198.689 28.456C198.689 29.512 198.209 30.568 197.153 30.808C195.809 30.808 194.897 30.568 194.897 27.256C194.849 27.304 194.705 27.304 194.561 27.304C194.225 27.304 193.841 27.256 193.553 27.256C193.361 27.256 193.265 27.304 193.265 27.304V29.848C193.265 30.616 193.313 31.288 193.361 31.96L193.457 34.936ZM214.195 18.904L214.291 20.2C214.291 21.976 214.243 23.032 214.387 25.432V25.384C214.435 25.576 214.435 25.672 214.579 25.672C214.867 25.576 215.635 25.576 215.971 25.576V25C215.971 24.616 216.019 24.328 216.211 23.704L217.123 22.84C217.267 22.696 217.459 22.648 217.699 22.648C218.851 22.648 219.811 23.608 219.811 23.944C220.003 25.432 220.195 27.112 220.195 28.696C220.195 28.84 220.627 31.384 218.179 31.384C217.747 31.384 217.363 31.336 217.075 31.096L216.835 30.952C216.595 30.76 216.451 30.616 216.355 30.376V30.424C215.923 29.704 215.923 29.704 215.923 29.176V28.648C215.827 28.6 215.059 28.6 214.771 28.6H214.531C214.531 28.648 214.531 28.648 214.483 28.696C214.291 28.888 214.195 33.208 214.195 36.952C214.195 38.2 214.195 39.304 214.291 39.784C215.011 39.88 215.827 39.928 216.643 39.928C217.075 39.928 217.459 39.928 217.843 39.88L221.347 39.448C221.347 39.304 221.395 39.16 221.395 39.064L221.587 37.336C221.779 36.808 222.355 36.376 222.835 35.992L223.411 35.896C224.131 35.944 225.043 36.376 225.187 36.856L225.379 37.528C225.523 37.912 225.571 38.296 225.619 38.776V39.208C225.571 39.928 225.763 40.6 225.763 41.32C225.763 42.136 224.659 42.952 223.651 42.952C222.883 42.952 222.115 42.184 221.155 42.184C219.091 42.184 217.123 42.76 215.059 42.76C214.771 42.76 214.483 42.712 214.195 42.712C213.763 42.808 212.803 43.528 211.987 43.528C211.555 43.528 210.883 43.528 210.211 43.528C209.923 43.528 209.539 43.624 209.203 43.624C208.339 43.624 207.859 42.904 207.859 42.088C207.859 41.032 209.299 40.984 209.299 39.688C208.963 37.144 208.867 34.504 208.867 31.864C208.867 30.424 208.963 29.032 208.963 27.64V26.968C208.963 26.728 209.011 26.44 209.011 26.248V22.504C208.963 21.592 208.963 20.104 208.963 19.336C208.963 17.848 209.107 16.456 209.107 14.968C209.107 14.824 209.011 14.776 208.867 14.68L208.339 14.536C207.427 14.296 206.659 14.008 206.659 12.568L207.379 11.848H208.147C208.483 11.8 209.155 11.8 209.347 11.8C209.731 11.848 211.075 11.848 211.507 11.848C211.651 11.8 211.891 11.8 212.275 11.8C213.283 11.8 214.915 11.944 216.211 11.944C217.987 11.944 220.147 11.704 221.923 11.08C222.259 10.984 222.883 10.936 223.411 10.936C225.811 10.936 226.531 13.096 226.531 14.392C226.531 15.832 226.291 16.264 226.291 16.936C226.003 18.376 224.659 18.808 223.939 18.808C222.163 18.808 222.067 17.56 222.067 16.216V15.688C222.067 15.256 221.827 14.872 221.827 14.152C220.291 14.488 217.843 14.728 215.731 14.728H215.107C214.867 14.728 214.195 14.632 214.195 15.064V18.904ZM219.907 1.72H220.051C220.195 1.72 220.291 1.72 220.435 1.72C221.539 1.72 222.115 2.296 222.115 3.208C222.115 4.456 221.059 6.232 217.891 7.816V7.768C217.651 8.008 216.931 8.2 216.499 8.2C216.307 8.2 214.915 7.336 214.915 6.28C214.915 4.648 218.371 2.104 219.907 1.72Z" fill="white"/>
<path d="M100.383 56.3462L101.753 56.5761C101.577 57.0785 101.298 57.4618 100.916 57.726C100.538 57.987 100.063 58.1174 99.4922 58.1174C98.5887 58.1174 97.9199 57.8222 97.4861 57.2318C97.1436 56.7588 96.9723 56.1619 96.9723 55.441C96.9723 54.5798 97.1974 53.9062 97.6476 53.4202C98.0977 52.9309 98.6669 52.6862 99.3552 52.6862C100.128 52.6862 100.738 52.9423 101.185 53.4544C101.632 53.9633 101.846 54.7445 101.826 55.7982H98.3815C98.3913 56.2059 98.5022 56.524 98.7142 56.7523C98.9263 56.9774 99.1905 57.0899 99.5069 57.0899C99.7222 57.0899 99.9032 57.0312 100.05 56.9138C100.197 56.7963 100.308 56.6071 100.383 56.3462ZM100.461 54.9566C100.451 54.5586 100.348 54.2569 100.153 54.0514C99.9571 53.8426 99.7189 53.7382 99.4384 53.7382C99.1383 53.7382 98.8904 53.8475 98.6947 54.066C98.499 54.2846 98.4027 54.5814 98.406 54.9566H100.461ZM102.467 56.5174L103.847 56.307C103.906 56.5745 104.025 56.7784 104.204 56.9187C104.384 57.0557 104.635 57.1242 104.958 57.1242C105.313 57.1242 105.581 57.0589 105.76 56.9284C105.881 56.8371 105.941 56.7148 105.941 56.5615C105.941 56.4571 105.909 56.3706 105.843 56.3021C105.775 56.2369 105.622 56.1765 105.383 56.1211C104.274 55.8764 103.571 55.653 103.275 55.4508C102.863 55.1702 102.658 54.7804 102.658 54.2813C102.658 53.8312 102.836 53.4528 103.191 53.1462C103.547 52.8395 104.098 52.6862 104.845 52.6862C105.556 52.6862 106.085 52.802 106.43 53.0336C106.776 53.2652 107.014 53.6077 107.145 54.0611L105.848 54.3009C105.793 54.0987 105.687 53.9437 105.53 53.8361C105.377 53.7284 105.157 53.6746 104.87 53.6746C104.508 53.6746 104.248 53.7252 104.092 53.8263C103.987 53.898 103.935 53.991 103.935 54.1052C103.935 54.203 103.981 54.2862 104.072 54.3547C104.196 54.4461 104.623 54.5749 105.354 54.7413C106.088 54.9076 106.6 55.1115 106.89 55.3529C107.177 55.5975 107.321 55.9384 107.321 56.3755C107.321 56.8518 107.122 57.2612 106.724 57.6037C106.326 57.9462 105.737 58.1174 104.958 58.1174C104.25 58.1174 103.689 57.9739 103.275 57.6868C102.863 57.3998 102.594 57.01 102.467 56.5174ZM110.912 52.8037V53.8997H109.973V55.9939C109.973 56.4179 109.981 56.6658 109.997 56.7376C110.017 56.8061 110.058 56.8632 110.12 56.9089C110.185 56.9545 110.263 56.9774 110.355 56.9774C110.482 56.9774 110.666 56.9333 110.908 56.8453L111.025 57.9119C110.705 58.0489 110.343 58.1174 109.939 58.1174C109.691 58.1174 109.467 58.0767 109.268 57.9951C109.069 57.9103 108.923 57.8026 108.828 57.6722C108.737 57.5384 108.673 57.359 108.637 57.1339C108.608 56.9741 108.593 56.6512 108.593 56.1651V53.8997H107.962V52.8037H108.593V51.7712L109.973 50.9688V52.8037H110.912ZM111.867 58V56.6251H113.242V58H111.867ZM121.794 56.7229V58H116.975C117.027 57.5172 117.184 57.0605 117.445 56.63C117.706 56.1961 118.221 55.622 118.991 54.9076C119.611 54.3303 119.991 53.9388 120.131 53.7333C120.32 53.4495 120.415 53.169 120.415 52.8917C120.415 52.5851 120.331 52.3502 120.165 52.1871C120.002 52.0208 119.775 51.9376 119.485 51.9376C119.198 51.9376 118.97 52.024 118.8 52.1969C118.63 52.3698 118.532 52.6569 118.506 53.0581L117.136 52.9211C117.218 52.1643 117.474 51.6212 117.905 51.2917C118.335 50.9623 118.873 50.7975 119.519 50.7975C120.227 50.7975 120.783 50.9884 121.188 51.37C121.592 51.7517 121.794 52.2263 121.794 52.7939C121.794 53.1168 121.736 53.4251 121.618 53.7186C121.504 54.009 121.321 54.314 121.07 54.6336C120.904 54.8457 120.604 55.1507 120.17 55.5486C119.736 55.9466 119.46 56.2108 119.343 56.3413C119.229 56.4718 119.136 56.599 119.064 56.7229H121.794ZM125.053 50.7975C125.748 50.7975 126.291 51.0454 126.683 51.5413C127.149 52.1284 127.382 53.1021 127.382 54.4624C127.382 55.8194 127.147 56.7947 126.678 57.3884C126.289 57.8777 125.748 58.1223 125.053 58.1223C124.355 58.1223 123.792 57.8548 123.365 57.3199C122.938 56.7816 122.724 55.8243 122.724 54.4477C122.724 53.0972 122.959 52.1252 123.429 51.5315C123.817 51.0422 124.358 50.7975 125.053 50.7975ZM125.053 51.9376C124.887 51.9376 124.738 51.9914 124.608 52.0991C124.477 52.2034 124.376 52.3926 124.305 52.6666C124.21 53.0222 124.163 53.6208 124.163 54.4624C124.163 55.304 124.205 55.883 124.29 56.1994C124.375 56.5125 124.481 56.7213 124.608 56.8257C124.738 56.9301 124.887 56.9823 125.053 56.9823C125.22 56.9823 125.368 56.9301 125.498 56.8257C125.629 56.718 125.73 56.5272 125.802 56.2532C125.896 55.9009 125.944 55.304 125.944 54.4624C125.944 53.6208 125.901 53.0434 125.816 52.7303C125.732 52.4138 125.624 52.2034 125.494 52.0991C125.366 51.9914 125.22 51.9376 125.053 51.9376ZM132.95 56.7229V58H128.131C128.183 57.5172 128.34 57.0605 128.601 56.63C128.862 56.1961 129.377 55.622 130.147 54.9076C130.767 54.3303 131.147 53.9388 131.287 53.7333C131.476 53.4495 131.571 53.169 131.571 52.8917C131.571 52.5851 131.487 52.3502 131.321 52.1871C131.158 52.0208 130.931 51.9376 130.641 51.9376C130.354 51.9376 130.126 52.024 129.956 52.1969C129.786 52.3698 129.688 52.6569 129.662 53.0581L128.292 52.9211C128.374 52.1643 128.63 51.6212 129.061 51.2917C129.491 50.9623 130.029 50.7975 130.675 50.7975C131.383 50.7975 131.939 50.9884 132.344 51.37C132.748 51.7517 132.95 52.2263 132.95 52.7939C132.95 53.1168 132.892 53.4251 132.774 53.7186C132.66 54.009 132.477 54.314 132.226 54.6336C132.06 54.8457 131.76 55.1507 131.326 55.5486C130.892 55.9466 130.616 56.2108 130.499 56.3413C130.385 56.4718 130.292 56.599 130.22 56.7229H132.95ZM133.836 56.0966L135.167 55.9352C135.209 56.2744 135.324 56.5337 135.509 56.7131C135.695 56.8926 135.92 56.9823 136.185 56.9823C136.469 56.9823 136.707 56.8746 136.899 56.6593C137.095 56.444 137.193 56.1537 137.193 55.7884C137.193 55.4426 137.1 55.1686 136.914 54.9664C136.728 54.7641 136.501 54.663 136.234 54.663C136.057 54.663 135.847 54.6972 135.602 54.7657L135.754 53.6452C136.126 53.655 136.41 53.5751 136.606 53.4055C136.801 53.2326 136.899 53.0043 136.899 52.7205C136.899 52.4791 136.827 52.2866 136.684 52.1431C136.54 51.9996 136.349 51.9278 136.111 51.9278C135.876 51.9278 135.676 52.0094 135.509 52.1725C135.343 52.3356 135.242 52.5737 135.206 52.8868L133.939 52.6715C134.027 52.2377 134.159 51.8919 134.335 51.6342C134.515 51.3733 134.762 51.1694 135.079 51.0226C135.399 50.8726 135.756 50.7975 136.15 50.7975C136.826 50.7975 137.367 51.0128 137.775 51.4434C138.111 51.7957 138.279 52.1937 138.279 52.6373C138.279 53.2669 137.935 53.7692 137.246 54.1443C137.657 54.2324 137.985 54.4298 138.23 54.7364C138.478 55.043 138.602 55.4132 138.602 55.8471C138.602 56.4767 138.372 57.0132 137.912 57.4569C137.452 57.9005 136.88 58.1223 136.194 58.1223C135.545 58.1223 135.007 57.9364 134.58 57.5645C134.152 57.1894 133.905 56.7001 133.836 56.0966Z" fill="white"/>
<circle cx="230" cy="13.5" r="2.40909" fill="white" stroke="black" stroke-width="0.181818"/>
<path d="M229.422 15V12.3527H229.847C230.091 12.3527 230.287 12.4218 230.429 12.5636C230.564 12.6982 230.644 12.8982 230.644 13.1745V13.2C230.644 13.5491 230.498 13.7818 230.28 13.9091L230.691 15H230.302L229.938 14.0218C229.927 14.0255 229.909 14.0255 229.884 14.0255H229.778V15H229.422ZM229.778 13.7055H229.851C230.113 13.7055 230.284 13.5527 230.284 13.2036V13.1782C230.284 12.8145 230.098 12.6873 229.84 12.6873H229.778V13.7055Z" fill="black"/>
</svg>
