<svg width="43" height="43" viewBox="0 0 43 43" fill="none" xmlns="http://www.w3.org/2000/svg">
<path d="M0 5C0 2.23858 2.23858 0 5 0H38C40.7614 0 43 2.23858 43 5V38C43 40.7614 40.7614 43 38 43H5C2.23858 43 0 40.7614 0 38V5Z" fill="#666666" fill-opacity="0.49"/>
<path d="M19.416 19.5C19.416 20.0525 19.6355 20.5824 20.0262 20.9731C20.4169 21.3638 20.9468 21.5833 21.4993 21.5833C22.0519 21.5833 22.5818 21.3638 22.9725 20.9731C23.3632 20.5824 23.5827 20.0525 23.5827 19.5C23.5827 18.9474 23.3632 18.4175 22.9725 18.0268C22.5818 17.6361 22.0519 17.4166 21.4993 17.4166C20.9468 17.4166 20.4169 17.6361 20.0262 18.0268C19.6355 18.4175 19.416 18.9474 19.416 19.5Z" stroke="white" stroke-width="2" stroke-linecap="round" stroke-linejoin="round"/>
<path d="M21.5 25.75C21.1583 25.75 20.8215 25.7326 20.4896 25.6979C17.1847 25.3521 14.3965 23.2861 12.125 19.5C14.625 15.3333 17.75 13.25 21.5 13.25C25.109 13.25 28.1392 15.1799 30.5906 19.0396M30.0417 28.0417L31.9167 29.9167M24.625 25.75C24.625 26.5788 24.9542 27.3737 25.5403 27.9597C26.1263 28.5458 26.9212 28.875 27.75 28.875C28.5788 28.875 29.3737 28.5458 29.9597 27.9597C30.5458 27.3737 30.875 26.5788 30.875 25.75C30.875 24.9212 30.5458 24.1263 29.9597 23.5403C29.3737 22.9542 28.5788 22.625 27.75 22.625C26.9212 22.625 26.1263 22.9542 25.5403 23.5403C24.9542 24.1263 24.625 24.9212 24.625 25.75Z" stroke="white" stroke-width="2" stroke-linecap="round" stroke-linejoin="round"/>
</svg>
