<svg width="43" height="43" viewBox="0 0 43 43" fill="none" xmlns="http://www.w3.org/2000/svg">
<path d="M0 5C0 2.23858 2.23858 0 5 0H38C40.7614 0 43 2.23858 43 5V38C43 40.7614 40.7614 43 38 43H5C2.23858 43 0 40.7614 0 38V5Z" fill="#666666" fill-opacity="0.49"/>
<path d="M21.6692 12.282C21.8872 12.239 22.1122 12.239 22.3312 12.282C22.5822 12.33 22.8102 12.449 23.0222 12.559L23.0752 12.587L31.3452 16.867C31.4673 16.9302 31.5696 17.0258 31.641 17.1433C31.7124 17.2607 31.7502 17.3955 31.7502 17.533V25.431C31.7502 25.714 31.7522 26.014 31.6572 26.293C31.5736 26.536 31.4389 26.7584 31.2622 26.945C31.0572 27.159 30.7892 27.296 30.5392 27.425L30.4762 27.458L22.3452 31.666C22.2386 31.7212 22.1203 31.7501 22.0002 31.7501C21.8801 31.7501 21.7618 31.7212 21.6552 31.666L13.5242 27.458L13.4612 27.425C13.2112 27.296 12.9432 27.159 12.7382 26.945C12.5615 26.7584 12.4268 26.536 12.3432 26.293C12.2482 26.013 12.2492 25.713 12.2502 25.43V17.533C12.2502 17.3955 12.288 17.2607 12.3594 17.1433C12.4308 17.0258 12.5331 16.9302 12.6552 16.867L20.9242 12.587L20.9772 12.56C21.1902 12.449 21.4172 12.33 21.6692 12.282ZM21.8952 13.778C21.8002 13.8229 21.7061 13.8699 21.6132 13.919L14.6682 17.514L22.0002 21.102L29.3322 17.514L22.3862 13.919C22.2933 13.8699 22.1993 13.8229 22.1042 13.778L22.0462 13.754M21.2502 29.767V22.405L13.7502 18.735V25.359C13.7502 25.546 13.7502 25.653 13.7552 25.734L13.7642 25.812C13.7771 25.8469 13.7965 25.8792 13.8212 25.907C13.8262 25.911 13.8422 25.924 13.8852 25.949C13.9532 25.991 14.0482 26.039 14.2132 26.125L21.2502 29.767Z" fill="white"/>
</svg>
